<svg xmlns="http://www.w3.org/2000/svg" viewBox="0 0 800 600" width="800" height="600">
  <defs>
    <linearGradient id="bg" x1="0%" y1="0%" x2="100%" y2="100%">
      <stop offset="0%" style="stop-color:#1a1000"/>
      <stop offset="100%" style="stop-color:#0a0800"/>
    </linearGradient>
    <linearGradient id="brown" x1="0%" y1="0%" x2="100%" y2="0%">
      <stop offset="0%" style="stop-color:#d97706"/>
      <stop offset="100%" style="stop-color:#b45309"/>
    </linearGradient>
  </defs>
  <rect width="800" height="600" fill="url(#bg)"/>
  <rect x="20" y="20" width="760" height="560" rx="12" fill="#111" stroke="#333" stroke-width="2"/>
  <rect x="20" y="20" width="760" height="40" rx="12" fill="#1a1a1a"/>
  <circle cx="45" cy="40" r="6" fill="#ef4444"/>
  <circle cx="65" cy="40" r="6" fill="#f59e0b"/>
  <circle cx="85" cy="40" r="6" fill="#10b981"/>
  <rect x="200" y="32" width="200" height="16" rx="4" fill="#333"/>
  <!-- Navigation -->
  <rect x="20" y="60" width="760" height="50" fill="#1a1000" stroke="rgba(217,119,6,0.2)" stroke-width="1"/>
  <text x="60" y="90" fill="#d97706" font-family="Georgia" font-size="18" font-weight="bold">☕ Bean & Brew</text>
  <text x="250" y="90" fill="#c9a06c" font-family="Arial" font-size="11">Home</text>
  <text x="300" y="90" fill="#c9a06c" font-family="Arial" font-size="11">Menu</text>
  <text x="340" y="90" fill="#c9a06c" font-family="Arial" font-size="11">Gallery</text>
  <text x="390" y="90" fill="#c9a06c" font-family="Arial" font-size="11">About</text>
  <text x="430" y="90" fill="#c9a06c" font-family="Arial" font-size="11">Events</text>
  <text x="475" y="90" fill="#c9a06c" font-family="Arial" font-size="11">Contact</text>
  <rect x="650" y="75" width="110" height="28" rx="6" fill="url(#brown)"/>
  <text x="705" y="93" text-anchor="middle" fill="white" font-family="Arial" font-size="10" font-weight="bold">Order Online</text>
  <!-- Hero -->
  <rect x="220" y="130" width="350" height="16" rx="4" fill="rgba(217,119,6,0.2)"/>
  <text x="230" y="143" fill="#d97706" font-family="Arial" font-size="10">☕ Premium Coffee Experience</text>
  <rect x="220" y="155" width="420" height="40" rx="4" fill="#1e1000"/>
  <text x="230" y="182" fill="white" font-family="Georgia" font-size="28" font-weight="bold">Life Begins After <tspan fill="#d97706">Coffee</tspan></text>
  <rect x="220" y="210" width="350" height="10" rx="3" fill="#2a1a00"/>
  <rect x="220" y="228" width="300" height="10" rx="3" fill="#2a1a00"/>
  <rect x="220" y="250" width="110" height="32" rx="6" fill="url(#brown)"/>
  <text x="275" y="270" text-anchor="middle" fill="white" font-family="Arial" font-size="11" font-weight="bold">Our Menu</text>
  <rect x="345" y="250" width="110" height="32" rx="6" fill="transparent" stroke="#d97706" stroke-width="2"/>
  <text x="400" y="270" text-anchor="middle" fill="#d97706" font-family="Arial" font-size="11">Visit Us</text>
  <!-- Coffee Image -->
  <rect x="630" y="130" width="140" height="160" rx="16" fill="rgba(217,119,6,0.12)" stroke="rgba(217,119,6,0.3)" stroke-width="2" stroke-dasharray="8,4"/>
  <text x="700" y="215" text-anchor="middle" fill="rgba(217,119,6,0.5)" font-size="50">☕</text>
  <!-- Menu Items -->
  <rect x="220" y="300" width="160" height="160" rx="12" fill="#1e1000" stroke="rgba(217,119,6,0.2)" stroke-width="1"/>
  <rect x="240" y="320" width="120" height="50" rx="8" fill="rgba(217,119,6,0.15)"/>
  <text x="300" y="352" text-anchor="middle" fill="rgba(217,119,6,0.4)" font-size="28">☕</text>
  <rect x="240" y="380" width="80" height="8" rx="3" fill="#333"/>
  <rect x="240" y="393" width="60" height="8" rx="3" fill="#2a1a00"/>
  <text x="300" y="425" text-anchor="middle" fill="#d97706" font-family="Arial" font-size="14" font-weight="bold">₹180</text>
  <text x="300" y="450" text-anchor="middle" fill="#c9a06c" font-family="Arial" font-size="9">Cappuccino</text>
  <rect x="400" y="300" width="160" height="160" rx="12" fill="#1e1000" stroke="rgba(217,119,6,0.2)" stroke-width="1"/>
  <rect x="420" y="320" width="120" height="50" rx="8" fill="rgba(217,119,6,0.15)"/>
  <text x="480" y="352" text-anchor="middle" fill="rgba(217,119,6,0.4)" font-size="28">🥐</text>
  <rect x="420" y="380" width="80" height="8" rx="3" fill="#333"/>
  <rect x="420" y="393" width="60" height="8" rx="3" fill="#2a1a00"/>
  <text x="480" y="425" text-anchor="middle" fill="#d97706" font-family="Arial" font-size="14" font-weight="bold">₹120</text>
  <text x="480" y="450" text-anchor="middle" fill="#c9a06c" font-family="Arial" font-size="9">Croissant</text>
  <rect x="580" y="300" width="160" height="160" rx="12" fill="#1e1000" stroke="rgba(217,119,6,0.2)" stroke-width="1"/>
  <rect x="600" y="320" width="120" height="50" rx="8" fill="rgba(217,119,6,0.15)"/>
  <text x="660" y="352" text-anchor="middle" fill="rgba(217,119,6,0.4)" font-size="28">🧁</text>
  <rect x="600" y="380" width="80" height="8" rx="3" fill="#333"/>
  <rect x="600" y="393" width="60" height="8" rx="3" fill="#2a1a00"/>
  <text x="660" y="425" text-anchor="middle" fill="#d97706" font-family="Arial" font-size="14" font-weight="bold">₹90</text>
  <text x="660" y="450" text-anchor="middle" fill="#c9a06c" font-family="Arial" font-size="9">Muffin</text>
  <!-- Ambiance Section -->
  <rect x="220" y="480" width="520" height="60" rx="8" fill="#1e1000" stroke="rgba(217,119,6,0.2)" stroke-width="1"/>
  <text x="480" y="505" text-anchor="middle" fill="#d97706" font-family="Georgia" font-size="13" font-weight="bold">Cozy Ambiance • Free WiFi • Live Music</text>
  <text x="480" y="525" text-anchor="middle" fill="#8b7355" font-family="Arial" font-size="10">Open Daily: 7 AM - 10 PM</text>
  <!-- Footer -->
  <rect x="20" y="550" width="760" height="30" fill="#0d0500"/>
  <text x="400" y="570" text-anchor="middle" fill="#8b7355" font-family="Arial" font-size="9">© 2024 Bean & Brew Café. All Rights Reserved.</text>
</svg>
