<svg xmlns="http://www.w3.org/2000/svg" viewBox="0 0 800 600" width="800" height="600">
  <defs>
    <linearGradient id="bg" x1="0%" y1="0%" x2="100%" y2="100%">
      <stop offset="0%" style="stop-color:#000a14"/>
      <stop offset="100%" style="stop-color:#000508"/>
    </linearGradient>
    <linearGradient id="blue" x1="0%" y1="0%" x2="100%" y2="0%">
      <stop offset="0%" style="stop-color:#0ea5e9"/>
      <stop offset="100%" style="stop-color:#0284c7"/>
    </linearGradient>
  </defs>
  <rect width="800" height="600" fill="url(#bg)"/>
  <rect x="20" y="20" width="760" height="560" rx="12" fill="#111" stroke="#333" stroke-width="2"/>
  <rect x="20" y="20" width="760" height="40" rx="12" fill="#1a1a1a"/>
  <circle cx="45" cy="40" r="6" fill="#ef4444"/>
  <circle cx="65" cy="40" r="6" fill="#f59e0b"/>
  <circle cx="85" cy="40" r="6" fill="#10b981"/>
  <rect x="200" y="32" width="200" height="16" rx="4" fill="#333"/>
  <!-- Navigation -->
  <rect x="20" y="60" width="760" height="50" fill="#000a14" stroke="rgba(14,165,233,0.2)" stroke-width="1"/>
  <text x="60" y="90" fill="#0ea5e9" font-family="Arial" font-size="18" font-weight="bold">🏥 MediCare Clinic</text>
  <text x="260" y="90" fill="#8bb8d9" font-family="Arial" font-size="11">Home</text>
  <text x="300" y="90" fill="#8bb8d9" font-family="Arial" font-size="11">Doctors</text>
  <text x="355" y="90" fill="#8bb8d9" font-family="Arial" font-size="11">Services</text>
  <text x="420" y="90" fill="#8bb8d9" font-family="Arial" font-size="11">Appointments</text>
  <text x="510" y="90" fill="#8bb8d9" font-family="Arial" font-size="11">Blog</text>
  <text x="545" y="90" fill="#8bb8d9" font-family="Arial" font-size="11">Contact</text>
  <rect x="650" y="75" width="110" height="28" rx="6" fill="url(#blue)"/>
  <text x="705" y="93" text-anchor="middle" fill="white" font-family="Arial" font-size="10" font-weight="bold">Book Appointment</text>
  <!-- Hero -->
  <rect x="220" y="130" width="350" height="16" rx="4" fill="rgba(14,165,233,0.2)"/>
  <text x="230" y="143" fill="#0ea5e9" font-family="Arial" font-size="10">🏥 Trusted Healthcare Partner</text>
  <rect x="220" y="155" width="420" height="40" rx="4" fill="#000508"/>
  <text x="230" y="182" fill="white" font-family="Arial" font-size="28" font-weight="bold">Your Health, Our <tspan fill="#0ea5e9">Priority</tspan></text>
  <rect x="220" y="210" width="350" height="10" rx="3" fill="#001a2e"/>
  <rect x="220" y="228" width="280" height="10" rx="3" fill="#001a2e"/>
  <rect x="220" y="250" width="120" height="32" rx="6" fill="url(#blue)"/>
  <text x="280" y="270" text-anchor="middle" fill="white" font-family="Arial" font-size="11" font-weight="bold">Find a Doctor</text>
  <rect x="355" y="250" width="120" height="32" rx="6" fill="transparent" stroke="#0ea5e9" stroke-width="2"/>
  <text x="415" y="270" text-anchor="middle" fill="#0ea5e9" font-family="Arial" font-size="11">Our Services</text>
  <!-- Clinic Image -->
  <rect x="630" y="130" width="140" height="160" rx="16" fill="rgba(14,165,233,0.12)" stroke="rgba(14,165,233,0.3)" stroke-width="2" stroke-dasharray="8,4"/>
  <text x="700" y="215" text-anchor="middle" fill="rgba(14,165,233,0.5)" font-size="50">🏥</text>
  <!-- Doctors -->
  <rect x="220" y="300" width="120" height="150" rx="12" fill="#000a14" stroke="rgba(14,165,233,0.2)" stroke-width="1"/>
  <rect x="250" y="315" width="60" height="60" rx="30" fill="rgba(14,165,233,0.2)"/>
  <text x="280" y="352" text-anchor="middle" fill="rgba(14,165,233,0.5)" font-size="28">👨‍⚕️</text>
  <rect x="240" y="390" width="80" height="8" rx="3" fill="#001a2e"/>
  <rect x="250" y="403" width="60" height="8" rx="3" fill="#001520"/>
  <text x="280" y="435" text-anchor="middle" fill="#0ea5e9" font-family="Arial" font-size="9">Dr. Smith</text>
  <rect x="360" y="300" width="120" height="150" rx="12" fill="#000a14" stroke="rgba(14,165,233,0.2)" stroke-width="1"/>
  <rect x="390" y="315" width="60" height="60" rx="30" fill="rgba(14,165,233,0.2)"/>
  <text x="420" y="352" text-anchor="middle" fill="rgba(14,165,233,0.5)" font-size="28">👩‍⚕️</text>
  <rect x="380" y="390" width="80" height="8" rx="3" fill="#001a2e"/>
  <rect x="390" y="403" width="60" height="8" rx="3" fill="#001520"/>
  <text x="420" y="435" text-anchor="middle" fill="#0ea5e9" font-family="Arial" font-size="9">Dr. Patel</text>
  <rect x="500" y="300" width="120" height="150" rx="12" fill="#000a14" stroke="rgba(14,165,233,0.2)" stroke-width="1"/>
  <rect x="530" y="315" width="60" height="60" rx="30" fill="rgba(14,165,233,0.2)"/>
  <text x="560" y="352" text-anchor="middle" fill="rgba(14,165,233,0.5)" font-size="28">👨‍⚕️</text>
  <rect x="520" y="390" width="80" height="8" rx="3" fill="#001a2e"/>
  <rect x="530" y="403" width="60" height="8" rx="3" fill="#001520"/>
  <text x="560" y="435" text-anchor="middle" fill="#0ea5e9" font-family="Arial" font-size="9">Dr. Johnson</text>
  <!-- Appointment Form -->
  <rect x="220" y="470" width="520" height="80" rx="8" fill="#000a14" stroke="rgba(14,165,233,0.2)" stroke-width="1"/>
  <text x="480" y="495" text-anchor="middle" fill="#0ea5e9" font-family="Arial" font-size="14" font-weight="bold">Quick Appointment Booking</text>
  <rect x="240" y="510" width="100" height="24" rx="4" fill="#001a2e" stroke="rgba(14,165,233,0.2)" stroke-width="1"/>
  <text x="250" y="526" fill="#8bb8d9" font-family="Arial" font-size="8">Your Name</text>
  <rect x="350" y="510" width="100" height="24" rx="4" fill="#001a2e" stroke="rgba(14,165,233,0.2)" stroke-width="1"/>
  <text x="360" y="526" fill="#8bb8d9" font-family="Arial" font-size="8">Phone</text>
  <rect x="460" y="510" width="100" height="24" rx="4" fill="#001a2e" stroke="rgba(14,165,233,0.2)" stroke-width="1"/>
  <text x="470" y="526" fill="#8bb8d9" font-family="Arial" font-size="8">Select Date</text>
  <rect x="570" y="510" width="100" height="24" rx="6" fill="url(#blue)"/>
  <text x="620" y="526" text-anchor="middle" fill="white" font-family="Arial" font-size="9" font-weight="bold">Book Now</text>
  <!-- Footer -->
  <rect x="20" y="560" width="760" height="20" fill="#000508"/>
  <text x="400" y="574" text-anchor="middle" fill="#8bb8d9" font-family="Arial" font-size="9">© 2024 MediCare Clinic. All Rights Reserved.</text>
</svg>
