<svg xmlns="http://www.w3.org/2000/svg" viewBox="0 0 800 600" width="800" height="600">
  <defs>
    <linearGradient id="bg" x1="0%" y1="0%" x2="100%" y2="100%">
      <stop offset="0%" style="stop-color:#0a0014"/>
      <stop offset="100%" style="stop-color:#05000a"/>
    </linearGradient>
    <linearGradient id="indigo" x1="0%" y1="0%" x2="100%" y2="0%">
      <stop offset="0%" style="stop-color:#6366f1"/>
      <stop offset="100%" style="stop-color:#4f46e5"/>
    </linearGradient>
  </defs>
  <rect width="800" height="600" fill="url(#bg)"/>
  <rect x="20" y="20" width="760" height="560" rx="12" fill="#111" stroke="#333" stroke-width="2"/>
  <rect x="20" y="20" width="760" height="40" rx="12" fill="#1a1a1a"/>
  <circle cx="45" cy="40" r="6" fill="#ef4444"/>
  <circle cx="65" cy="40" r="6" fill="#f59e0b"/>
  <circle cx="85" cy="40" r="6" fill="#10b981"/>
  <rect x="200" y="32" width="200" height="16" rx="4" fill="#333"/>
  <!-- Navigation -->
  <rect x="20" y="60" width="760" height="50" fill="#0a0014" stroke="rgba(99,102,241,0.2)" stroke-width="1"/>
  <text x="60" y="90" fill="#6366f1" font-family="Arial" font-size="18" font-weight="bold">🎓 EduLearn Academy</text>
  <text x="260" y="90" fill="#a5a0d9" font-family="Arial" font-size="11">Home</text>
  <text x="300" y="90" fill="#a5a0d9" font-family="Arial" font-size="11">Courses</text>
  <text x="355" y="90" fill="#a5a0d9" font-family="Arial" font-size="11">About</text>
  <text x="395" y="90" fill="#a5a0d9" font-family="Arial" font-size="11">Faculty</text>
  <text x="445" y="90" fill="#a5a0d9" font-family="Arial" font-size="11">Admissions</text>
  <text x="520" y="90" fill="#a5a0d9" font-family="Arial" font-size="11">Contact</text>
  <rect x="650" y="75" width="110" height="28" rx="6" fill="url(#indigo)"/>
  <text x="705" y="93" text-anchor="middle" fill="white" font-family="Arial" font-size="10" font-weight="bold">Enroll Now</text>
  <!-- Hero -->
  <rect x="220" y="130" width="350" height="16" rx="4" fill="rgba(99,102,241,0.2)"/>
  <text x="230" y="143" fill="#6366f1" font-family="Arial" font-size="10">📚 #1 Online Learning Platform</text>
  <rect x="220" y="155" width="420" height="40" rx="4" fill="#0a0014"/>
  <text x="230" y="182" fill="white" font-family="Arial" font-size="28" font-weight="bold">Learn Without <tspan fill="#6366f1">Limits</tspan></text>
  <rect x="220" y="210" width="350" height="10" rx="3" fill="#150025"/>
  <rect x="220" y="228" width="280" height="10" rx="3" fill="#150025"/>
  <rect x="220" y="250" width="110" height="32" rx="6" fill="url(#indigo)"/>
  <text x="275" y="270" text-anchor="middle" fill="white" font-family="Arial" font-size="11" font-weight="bold">Browse Courses</text>
  <rect x="345" y="250" width="110" height="32" rx="6" fill="transparent" stroke="#6366f1" stroke-width="2"/>
  <text x="400" y="270" text-anchor="middle" fill="#6366f1" font-family="Arial" font-size="11">Watch Demo</text>
  <!-- Education Image -->
  <rect x="630" y="130" width="140" height="160" rx="16" fill="rgba(99,102,241,0.12)" stroke="rgba(99,102,241,0.3)" stroke-width="2" stroke-dasharray="8,4"/>
  <text x="700" y="215" text-anchor="middle" fill="rgba(99,102,241,0.5)" font-size="50">🎓</text>
  <!-- Courses -->
  <rect x="220" y="300" width="160" height="160" rx="12" fill="#0a0014" stroke="rgba(99,102,241,0.2)" stroke-width="1"/>
  <rect x="240" y="315" width="120" height="50" rx="8" fill="rgba(99,102,241,0.15)"/>
  <text x="300" y="348" text-anchor="middle" fill="rgba(99,102,241,0.4)" font-size="28">💻</text>
  <rect x="240" y="375" width="80" height="8" rx="3" fill="#150025"/>
  <rect x="240" y="388" width="60" height="8" rx="3" fill="#10001a"/>
  <text x="300" y="420" text-anchor="middle" fill="#6366f1" font-family="Arial" font-size="14" font-weight="bold">₹4,999</text>
  <text x="300" y="438" text-anchor="middle" fill="#a5a0d9" font-family="Arial" font-size="9">Web Development</text>
  <rect x="400" y="300" width="160" height="160" rx="12" fill="#0a0014" stroke="#6366f1" stroke-width="2"/>
  <rect x="445" y="290" width="70" height="16" rx="8" fill="#6366f1"/>
  <text x="480" y="302" text-anchor="middle" fill="white" font-family="Arial" font-size="8" font-weight="bold">Bestseller</text>
  <rect x="420" y="315" width="120" height="50" rx="8" fill="rgba(99,102,241,0.15)"/>
  <text x="480" y="348" text-anchor="middle" fill="rgba(99,102,241,0.4)" font-size="28">🤖</text>
  <rect x="420" y="375" width="80" height="8" rx="3" fill="#150025"/>
  <rect x="420" y="388" width="60" height="8" rx="3" fill="#10001a"/>
  <text x="480" y="420" text-anchor="middle" fill="#6366f1" font-family="Arial" font-size="14" font-weight="bold">₹7,999</text>
  <text x="480" y="438" text-anchor="middle" fill="#a5a0d9" font-family="Arial" font-size="9">AI & Machine Learning</text>
  <rect x="580" y="300" width="160" height="160" rx="12" fill="#0a0014" stroke="rgba(99,102,241,0.2)" stroke-width="1"/>
  <rect x="600" y="315" width="120" height="50" rx="8" fill="rgba(99,102,241,0.15)"/>
  <text x="660" y="348" text-anchor="middle" fill="rgba(99,102,241,0.4)" font-size="28">📱</text>
  <rect x="600" y="375" width="80" height="8" rx="3" fill="#150025"/>
  <rect x="600" y="388" width="60" height="8" rx="3" fill="#10001a"/>
  <text x="660" y="420" text-anchor="middle" fill="#6366f1" font-family="Arial" font-size="14" font-weight="bold">₹5,999</text>
  <text x="660" y="438" text-anchor="middle" fill="#a5a0d9" font-family="Arial" font-size="9">Mobile App Dev</text>
  <!-- Stats -->
  <rect x="220" y="480" width="520" height="60" rx="8" fill="#0a0014" stroke="rgba(99,102,241,0.2)" stroke-width="1"/>
  <text x="350" y="505" text-anchor="middle" fill="#6366f1" font-family="Arial" font-size="14" font-weight="bold">10,000+ Students</text>
  <text x="480" y="505" text-anchor="middle" fill="#6366f1" font-family="Arial" font-size="14" font-weight="bold">50+ Courses</text>
  <text x="610" y="505" text-anchor="middle" fill="#6366f1" font-family="Arial" font-size="14" font-weight="bold">95% Success</text>
  <text x="480" y="525" text-anchor="middle" fill="#a5a0d9" font-family="Arial" font-size="10">Certified Courses • Placement Assistance</text>
  <!-- Footer -->
  <rect x="20" y="550" width="760" height="30" fill="#05000a"/>
  <text x="400" y="570" text-anchor="middle" fill="#a5a0d9" font-family="Arial" font-size="9">© 2024 EduLearn Academy. All Rights Reserved.</text>
</svg>
