<svg xmlns="http://www.w3.org/2000/svg" viewBox="0 0 800 600" width="800" height="600">
  <defs>
    <linearGradient id="bg" x1="0%" y1="0%" x2="100%" y2="100%">
      <stop offset="0%" style="stop-color:#001a0a"/>
      <stop offset="100%" style="stop-color:#000d05"/>
    </linearGradient>
    <linearGradient id="green" x1="0%" y1="0%" x2="100%" y2="0%">
      <stop offset="0%" style="stop-color:#10b981"/>
      <stop offset="100%" style="stop-color:#059669"/>
    </linearGradient>
  </defs>
  <rect width="800" height="600" fill="url(#bg)"/>
  <rect x="20" y="20" width="760" height="560" rx="12" fill="#111" stroke="#333" stroke-width="2"/>
  <rect x="20" y="20" width="760" height="40" rx="12" fill="#1a1a1a"/>
  <circle cx="45" cy="40" r="6" fill="#ef4444"/>
  <circle cx="65" cy="40" r="6" fill="#f59e0b"/>
  <circle cx="85" cy="40" r="6" fill="#10b981"/>
  <rect x="200" y="32" width="200" height="16" rx="4" fill="#333"/>
  <!-- Navigation -->
  <rect x="20" y="60" width="760" height="50" fill="#001a0a" stroke="rgba(16,185,129,0.2)" stroke-width="1"/>
  <text x="60" y="90" fill="#10b981" font-family="Georgia" font-size="18" font-weight="bold">🏠 Dream Homes</text>
  <text x="240" y="90" fill="#8bb8a0" font-family="Arial" font-size="11">Home</text>
  <text x="280" y="90" fill="#8bb8a0" font-family="Arial" font-size="11">Properties</text>
  <text x="350" y="90" fill="#8bb8a0" font-family="Arial" font-size="11">About</text>
  <text x="395" y="90" fill="#8bb8a0" font-family="Arial" font-size="11">Agents</text>
  <text x="440" y="90" fill="#8bb8a0" font-family="Arial" font-size="11">Services</text>
  <text x="505" y="90" fill="#8bb8a0" font-family="Arial" font-size="11">Contact</text>
  <rect x="650" y="75" width="110" height="28" rx="6" fill="url(#green)"/>
  <text x="705" y="93" text-anchor="middle" fill="white" font-family="Arial" font-size="10" font-weight="bold">List Property</text>
  <!-- Hero -->
  <rect x="220" y="130" width="350" height="16" rx="4" fill="rgba(16,185,129,0.2)"/>
  <text x="230" y="143" fill="#10b981" font-family="Arial" font-size="10">🏡 Find Your Dream Home</text>
  <rect x="220" y="155" width="420" height="40" rx="4" fill="#001a0a"/>
  <text x="230" y="182" fill="white" font-family="Georgia" font-size="28" font-weight="bold">Find Your Perfect <tspan fill="#10b981">Home</tspan></text>
  <rect x="220" y="210" width="350" height="10" rx="3" fill="#002a15"/>
  <rect x="220" y="228" width="280" height="10" rx="3" fill="#002a15"/>
  <rect x="220" y="250" width="110" height="32" rx="6" fill="url(#green)"/>
  <text x="275" y="270" text-anchor="middle" fill="white" font-family="Arial" font-size="11" font-weight="bold">Browse Homes</text>
  <rect x="345" y="250" width="110" height="32" rx="6" fill="transparent" stroke="#10b981" stroke-width="2"/>
  <text x="400" y="270" text-anchor="middle" fill="#10b981" font-family="Arial" font-size="11">List Property</text>
  <!-- Property Image -->
  <rect x="630" y="130" width="140" height="160" rx="16" fill="rgba(16,185,129,0.12)" stroke="rgba(16,185,129,0.3)" stroke-width="2" stroke-dasharray="8,4"/>
  <text x="700" y="215" text-anchor="middle" fill="rgba(16,185,129,0.5)" font-size="50">🏡</text>
  <!-- Properties -->
  <rect x="220" y="300" width="160" height="160" rx="12" fill="#001a0a" stroke="rgba(16,185,129,0.2)" stroke-width="1"/>
  <rect x="240" y="315" width="120" height="50" rx="8" fill="rgba(16,185,129,0.15)"/>
  <text x="300" y="348" text-anchor="middle" fill="rgba(16,185,129,0.4)" font-size="28">🏠</text>
  <rect x="240" y="375" width="80" height="8" rx="3" fill="#002a15"/>
  <rect x="240" y="388" width="60" height="8" rx="3" fill="#001f10"/>
  <text x="300" y="420" text-anchor="middle" fill="#10b981" font-family="Arial" font-size="14" font-weight="bold">₹45 Lakh</text>
  <text x="300" y="438" text-anchor="middle" fill="#8bb8a0" font-family="Arial" font-size="9">3 BHK • 1200 sqft</text>
  <rect x="400" y="300" width="160" height="160" rx="12" fill="#001a0a" stroke="#10b981" stroke-width="2"/>
  <rect x="445" y="290" width="70" height="16" rx="8" fill="#10b981"/>
  <text x="480" y="302" text-anchor="middle" fill="white" font-family="Arial" font-size="8" font-weight="bold">Featured</text>
  <rect x="420" y="315" width="120" height="50" rx="8" fill="rgba(16,185,129,0.15)"/>
  <text x="480" y="348" text-anchor="middle" fill="rgba(16,185,129,0.4)" font-size="28">🏢</text>
  <rect x="420" y="375" width="80" height="8" rx="3" fill="#002a15"/>
  <rect x="420" y="388" width="60" height="8" rx="3" fill="#001f10"/>
  <text x="480" y="420" text-anchor="middle" fill="#10b981" font-family="Arial" font-size="14" font-weight="bold">₹85 Lakh</text>
  <text x="480" y="438" text-anchor="middle" fill="#8bb8a0" font-family="Arial" font-size="9">4 BHK • 2000 sqft</text>
  <rect x="580" y="300" width="160" height="160" rx="12" fill="#001a0a" stroke="rgba(16,185,129,0.2)" stroke-width="1"/>
  <rect x="600" y="315" width="120" height="50" rx="8" fill="rgba(16,185,129,0.15)"/>
  <text x="660" y="348" text-anchor="middle" fill="rgba(16,185,129,0.4)" font-size="28">🏘️</text>
  <rect x="600" y="375" width="80" height="8" rx="3" fill="#002a15"/>
  <rect x="600" y="388" width="60" height="8" rx="3" fill="#001f10"/>
  <text x="660" y="420" text-anchor="middle" fill="#10b981" font-family="Arial" font-size="14" font-weight="bold">₹32 Lakh</text>
  <text x="660" y="438" text-anchor="middle" fill="#8bb8a0" font-family="Arial" font-size="9">2 BHK • 900 sqft</text>
  <!-- Search Form -->
  <rect x="220" y="480" width="520" height="60" rx="8" fill="#001a0a" stroke="rgba(16,185,129,0.2)" stroke-width="1"/>
  <text x="480" y="500" text-anchor="middle" fill="#10b981" font-family="Georgia" font-size="12" font-weight="bold">🔍 Property Search</text>
  <rect x="240" y="510" width="100" height="20" rx="4" fill="#002a15" stroke="rgba(16,185,129,0.2)" stroke-width="1"/>
  <text x="250" y="524" fill="#8bb8a0" font-family="Arial" font-size="8">Location</text>
  <rect x="350" y="510" width="80" height="20" rx="4" fill="#002a15" stroke="rgba(16,185,129,0.2)" stroke-width="1"/>
  <text x="360" y="524" fill="#8bb8a0" font-family="Arial" font-size="8">Budget</text>
  <rect x="440" y="510" width="80" height="20" rx="4" fill="#002a15" stroke="rgba(16,185,129,0.2)" stroke-width="1"/>
  <text x="450" y="524" fill="#8bb8a0" font-family="Arial" font-size="8">BHK</text>
  <rect x="530" y="510" width="100" height="20" rx="6" fill="url(#green)"/>
  <text x="580" y="524" text-anchor="middle" fill="white" font-family="Arial" font-size="9" font-weight="bold">Search</text>
  <!-- Footer -->
  <rect x="20" y="550" width="760" height="30" fill="#000d05"/>
  <text x="400" y="570" text-anchor="middle" fill="#8bb8a0" font-family="Arial" font-size="9">© 2024 Dream Homes Realty. All Rights Reserved.</text>
</svg>
