<svg xmlns="http://www.w3.org/2000/svg" viewBox="0 0 800 600" width="800" height="600">
  <defs>
    <linearGradient id="bg" x1="0%" y1="0%" x2="100%" y2="100%">
      <stop offset="0%" style="stop-color:#1a0f00"/>
      <stop offset="100%" style="stop-color:#0a0800"/>
    </linearGradient>
    <linearGradient id="orange" x1="0%" y1="0%" x2="100%" y2="0%">
      <stop offset="0%" style="stop-color:#f97316"/>
      <stop offset="100%" style="stop-color:#ea580c"/>
    </linearGradient>
  </defs>
  <rect width="800" height="600" fill="url(#bg)"/>
  <rect x="20" y="20" width="760" height="560" rx="12" fill="#111" stroke="#333" stroke-width="2"/>
  <rect x="20" y="20" width="760" height="40" rx="12" fill="#1a1a1a"/>
  <circle cx="45" cy="40" r="6" fill="#ef4444"/>
  <circle cx="65" cy="40" r="6" fill="#f59e0b"/>
  <circle cx="85" cy="40" r="6" fill="#10b981"/>
  <rect x="200" y="32" width="200" height="16" rx="4" fill="#333"/>
  <!-- Navigation -->
  <rect x="20" y="60" width="760" height="50" fill="#1a0f00" stroke="rgba(249,115,22,0.2)" stroke-width="1"/>
  <text x="60" y="90" fill="#f97316" font-family="Georgia" font-size="18" font-weight="bold">🍽️ Saffron Kitchen</text>
  <text x="300" y="90" fill="#c9a06c" font-family="Arial" font-size="11">Home</text>
  <text x="360" y="90" fill="#c9a06c" font-family="Arial" font-size="11">Menu</text>
  <text x="410" y="90" fill="#c9a06c" font-family="Arial" font-size="11">Gallery</text>
  <text x="470" y="90" fill="#c9a06c" font-family="Arial" font-size="11">Reservations</text>
  <text x="560" y="90" fill="#c9a06c" font-family="Arial" font-size="11">Contact</text>
  <rect x="650" y="75" width="110" height="28" rx="6" fill="url(#orange)"/>
  <text x="705" y="93" text-anchor="middle" fill="white" font-family="Arial" font-size="10" font-weight="bold">Book Table</text>
  <!-- Hero -->
  <rect x="220" y="130" width="380" height="16" rx="4" fill="rgba(249,115,22,0.2)"/>
  <text x="230" y="143" fill="#f97316" font-family="Arial" font-size="10">✨ Authentic Indian Cuisine</text>
  <rect x="220" y="155" width="450" height="40" rx="4" fill="#1e1000"/>
  <text x="230" y="182" fill="white" font-family="Georgia" font-size="28" font-weight="bold">Experience the <tspan fill="#f97316">Flavors</tspan></text>
  <text x="230" y="200" fill="white" font-family="Georgia" font-size="28" font-weight="bold">of India</text>
  <rect x="220" y="210" width="350" height="10" rx="3" fill="#2a1a00"/>
  <rect x="220" y="228" width="280" height="10" rx="3" fill="#2a1a00"/>
  <rect x="220" y="250" width="110" height="32" rx="6" fill="url(#orange)"/>
  <text x="275" y="270" text-anchor="middle" fill="white" font-family="Arial" font-size="11" font-weight="bold">Our Menu</text>
  <rect x="345" y="250" width="110" height="32" rx="6" fill="transparent" stroke="#f97316" stroke-width="2"/>
  <text x="400" y="270" text-anchor="middle" fill="#f97316" font-family="Arial" font-size="11">Book Now</text>
  <!-- Food Images -->
  <rect x="630" y="130" width="140" height="140" rx="16" fill="rgba(249,115,22,0.12)" stroke="rgba(249,115,22,0.3)" stroke-width="2" stroke-dasharray="8,4"/>
  <text x="700" y="200" text-anchor="middle" fill="rgba(249,115,22,0.5)" font-size="50">🍛</text>
  <rect x="630" y="280" width="140" height="80" rx="12" fill="rgba(249,115,22,0.12)" stroke="rgba(249,115,22,0.3)" stroke-width="2" stroke-dasharray="6,4"/>
  <text x="700" y="328" text-anchor="middle" fill="rgba(249,115,22,0.4)" font-size="30">🍕</text>
  <!-- Menu Cards -->
  <rect x="220" y="300" width="120" height="140" rx="12" fill="#1e1000" stroke="rgba(249,115,22,0.2)" stroke-width="1"/>
  <rect x="235" y="315" width="90" height="60" rx="8" fill="rgba(249,115,22,0.15)"/>
  <text x="280" y="352" text-anchor="middle" fill="rgba(249,115,22,0.4)" font-size="24">🍛</text>
  <rect x="235" y="385" width="70" height="8" rx="3" fill="#333"/>
  <rect x="235" y="398" width="50" height="8" rx="3" fill="#2a1a00"/>
  <text x="280" y="425" text-anchor="middle" fill="#f97316" font-family="Arial" font-size="14" font-weight="bold">₹350</text>
  <rect x="360" y="300" width="120" height="140" rx="12" fill="#1e1000" stroke="rgba(249,115,22,0.2)" stroke-width="1"/>
  <rect x="375" y="315" width="90" height="60" rx="8" fill="rgba(249,115,22,0.15)"/>
  <text x="420" y="352" text-anchor="middle" fill="rgba(249,115,22,0.4)" font-size="24">🍲</text>
  <rect x="375" y="385" width="70" height="8" rx="3" fill="#333"/>
  <rect x="375" y="398" width="50" height="8" rx="3" fill="#2a1a00"/>
  <text x="420" y="425" text-anchor="middle" fill="#f97316" font-family="Arial" font-size="14" font-weight="bold">₹420</text>
  <rect x="500" y="300" width="120" height="140" rx="12" fill="#1e1000" stroke="rgba(249,115,22,0.2)" stroke-width="1"/>
  <rect x="515" y="315" width="90" height="60" rx="8" fill="rgba(249,115,22,0.15)"/>
  <text x="560" y="352" text-anchor="middle" fill="rgba(249,115,22,0.4)" font-size="24">🥘</text>
  <rect x="515" y="385" width="70" height="8" rx="3" fill="#333"/>
  <rect x="515" y="398" width="50" height="8" rx="3" fill="#2a1a00"/>
  <text x="560" y="425" text-anchor="middle" fill="#f97316" font-family="Arial" font-size="14" font-weight="bold">₹280</text>
  <!-- Reservation Form -->
  <rect x="630" y="300" width="140" height="140" rx="12" fill="#1e1000" stroke="rgba(249,115,22,0.3)" stroke-width="1"/>
  <text x="700" y="325" text-anchor="middle" fill="#f97316" font-family="Georgia" font-size="13" font-weight="bold">Reserve a Table</text>
  <rect x="645" y="340" width="110" height="22" rx="4" fill="#2a1a00" stroke="rgba(249,115,22,0.2)" stroke-width="1"/>
  <text x="655" y="355" fill="#8b7355" font-family="Arial" font-size="8">Select Date</text>
  <rect x="645" y="368" width="110" height="22" rx="4" fill="#2a1a00" stroke="rgba(249,115,22,0.2)" stroke-width="1"/>
  <text x="655" y="383" fill="#8b7355" font-family="Arial" font-size="8">Select Time</text>
  <rect x="645" y="396" width="110" height="22" rx="4" fill="#2a1a00" stroke="rgba(249,115,22,0.2)" stroke-width="1"/>
  <text x="655" y="411" fill="#8b7355" font-family="Arial" font-size="8">2 Guests</text>
  <rect x="645" y="424" width="110" height="28" rx="6" fill="url(#orange)"/>
  <text x="700" y="442" text-anchor="middle" fill="white" font-family="Arial" font-size="9" font-weight="bold">Confirm Booking</text>
  <!-- Footer -->
  <rect x="20" y="470" width="760" height="110" fill="#0d0500"/>
  <text x="400" y="500" text-anchor="middle" fill="#f97316" font-family="Georgia" font-size="16" font-weight="bold">🍽️ Saffron Kitchen</text>
  <text x="400" y="520" text-anchor="middle" fill="#c9a06c" font-family="Arial" font-size="10">📍 123 Food Street, Mumbai</text>
  <text x="400" y="538" text-anchor="middle" fill="#c9a06c" font-family="Arial" font-size="10">📞 +91 98765 43210</text>
  <text x="400" y="560" text-anchor="middle" fill="#8b7355" font-family="Arial" font-size="9">© 2024 Saffron Kitchen. All Rights Reserved.</text>
</svg>
