<svg xmlns="http://www.w3.org/2000/svg" viewBox="0 0 800 600" width="800" height="600">
  <defs>
    <linearGradient id="bg" x1="0%" y1="0%" x2="100%" y2="100%">
      <stop offset="0%" style="stop-color:#00101e"/>
      <stop offset="100%" style="stop-color:#000810"/>
    </linearGradient>
    <linearGradient id="sky" x1="0%" y1="0%" x2="100%" y2="0%">
      <stop offset="0%" style="stop-color:#0ea5e9"/>
      <stop offset="100%" style="stop-color:#0284c7"/>
    </linearGradient>
  </defs>
  <rect width="800" height="600" fill="url(#bg)"/>
  <rect x="20" y="20" width="760" height="560" rx="12" fill="#111" stroke="#333" stroke-width="2"/>
  <rect x="20" y="20" width="760" height="40" rx="12" fill="#1a1a1a"/>
  <circle cx="45" cy="40" r="6" fill="#ef4444"/>
  <circle cx="65" cy="40" r="6" fill="#f59e0b"/>
  <circle cx="85" cy="40" r="6" fill="#10b981"/>
  <rect x="200" y="32" width="200" height="16" rx="4" fill="#333"/>
  <!-- Navigation -->
  <rect x="20" y="60" width="760" height="50" fill="#00101e" stroke="rgba(14,165,233,0.2)" stroke-width="1"/>
  <text x="60" y="90" fill="#0ea5e9" font-family="Georgia" font-size="18" font-weight="bold">✈️ SkyWay Travel</text>
  <text x="240" y="90" fill="#8bb8d9" font-family="Arial" font-size="11">Home</text>
  <text x="280" y="90" fill="#8bb8d9" font-family="Arial" font-size="11">Destinations</text>
  <text x="365" y="90" fill="#8bb8d9" font-family="Arial" font-size="11">Packages</text>
  <text x="435" y="90" fill="#8bb8d9" font-family="Arial" font-size="11">Contact</text>
  <rect x="650" y="75" width="110" height="28" rx="6" fill="url(#sky)"/>
  <text x="705" y="93" text-anchor="middle" fill="white" font-family="Arial" font-size="10" font-weight="bold">Book Trip</text>
  <!-- Hero -->
  <rect x="220" y="130" width="350" height="16" rx="4" fill="rgba(14,165,233,0.2)"/>
  <text x="230" y="143" fill="#0ea5e9" font-family="Arial" font-size="10">🌍 Explore the World</text>
  <rect x="220" y="155" width="420" height="40" rx="4" fill="#00101e"/>
  <text x="230" y="182" fill="white" font-family="Georgia" font-size="28" font-weight="bold">Discover Your Next <tspan fill="#0ea5e9">Adventure</tspan></text>
  <rect x="220" y="210" width="350" height="10" rx="3" fill="#001a30"/>
  <rect x="220" y="228" width="280" height="10" rx="3" fill="#001a30"/>
  <rect x="220" y="250" width="110" height="32" rx="6" fill="url(#sky)"/>
  <text x="275" y="270" text-anchor="middle" fill="white" font-family="Arial" font-size="11" font-weight="bold">View Packages</text>
  <rect x="345" y="250" width="110" height="32" rx="6" fill="transparent" stroke="#0ea5e9" stroke-width="2"/>
  <text x="400" y="270" text-anchor="middle" fill="#0ea5e9" font-family="Arial" font-size="11">Explore</text>
  <!-- Travel Image -->
  <rect x="630" y="130" width="140" height="160" rx="16" fill="rgba(14,165,233,0.12)" stroke="rgba(14,165,233,0.3)" stroke-width="2" stroke-dasharray="8,4"/>
  <text x="700" y="215" text-anchor="middle" fill="rgba(14,165,233,0.5)" font-size="50">✈️</text>
  <!-- Destinations -->
  <rect x="220" y="300" width="160" height="160" rx="12" fill="#00101e" stroke="rgba(14,165,233,0.2)" stroke-width="1"/>
  <rect x="240" y="315" width="120" height="50" rx="8" fill="rgba(14,165,233,0.15)"/>
  <text x="300" y="348" text-anchor="middle" fill="rgba(14,165,233,0.4)" font-size="28">🏔️</text>
  <rect x="240" y="375" width="80" height="8" rx="3" fill="#001a30"/>
  <rect x="240" y="388" width="60" height="8" rx="3" fill="#001520"/>
  <text x="300" y="420" text-anchor="middle" fill="#0ea5e9" font-family="Arial" font-size="14" font-weight="bold">₹25,000</text>
  <text x="300" y="438" text-anchor="middle" fill="#8bb8d9" font-family="Arial" font-size="9">Manali Package</text>
  <rect x="400" y="300" width="160" height="160" rx="12" fill="#00101e" stroke="#0ea5e9" stroke-width="2"/>
  <rect x="445" y="290" width="70" height="16" rx="8" fill="#0ea5e9"/>
  <text x="480" y="302" text-anchor="middle" fill="white" font-family="Arial" font-size="8" font-weight="bold">Popular</text>
  <rect x="420" y="315" width="120" height="50" rx="8" fill="rgba(14,165,233,0.15)"/>
  <text x="480" y="348" text-anchor="middle" fill="rgba(14,165,233,0.4)" font-size="28">🏖️</text>
  <rect x="420" y="375" width="80" height="8" rx="3" fill="#001a30"/>
  <rect x="420" y="388" width="60" height="8" rx="3" fill="#001520"/>
  <text x="480" y="420" text-anchor="middle" fill="#0ea5e9" font-family="Arial" font-size="14" font-weight="bold">₹35,000</text>
  <text x="480" y="438" text-anchor="middle" fill="#8bb8d9" font-family="Arial" font-size="9">Goa Package</text>
  <rect x="580" y="300" width="160" height="160" rx="12" fill="#00101e" stroke="rgba(14,165,233,0.2)" stroke-width="1"/>
  <rect x="600" y="315" width="120" height="50" rx="8" fill="rgba(14,165,233,0.15)"/>
  <text x="660" y="348" text-anchor="middle" fill="rgba(14,165,233,0.4)" font-size="28">🏰</text>
  <rect x="600" y="375" width="80" height="8" rx="3" fill="#001a30"/>
  <rect x="600" y="388" width="60" height="8" rx="3" fill="#001520"/>
  <text x="660" y="420" text-anchor="middle" fill="#0ea5e9" font-family="Arial" font-size="14" font-weight="bold">₹45,000</text>
  <text x="660" y="438" text-anchor="middle" fill="#8bb8d9" font-family="Arial" font-size="9">Rajasthan Tour</text>
  <!-- Features -->
  <rect x="220" y="480" width="520" height="60" rx="8" fill="#00101e" stroke="rgba(14,165,233,0.2)" stroke-width="1"/>
  <text x="480" y="505" text-anchor="middle" fill="#0ea5e9" font-family="Georgia" font-size="12" font-weight="bold">✈️ Flights • 🏨 Hotels • 🚗 Transfers • 📋 Itinerary</text>
  <text x="480" y="525" text-anchor="middle" fill="#8bb8d9" font-family="Arial" font-size="10">24/7 Support • Best Price Guarantee</text>
  <!-- Footer -->
  <rect x="20" y="550" width="760" height="30" fill="#000810"/>
  <text x="400" y="570" text-anchor="middle" fill="#8bb8d9" font-family="Arial" font-size="9">© 2024 SkyWay Travel. All Rights Reserved.</text>
</svg>
