<svg xmlns="http://www.w3.org/2000/svg" viewBox="0 0 800 600" width="800" height="600">
  <defs>
    <linearGradient id="bg" x1="0%" y1="0%" x2="100%" y2="100%">
      <stop offset="0%" style="stop-color:#1a0018"/>
      <stop offset="100%" style="stop-color:#0a000a"/>
    </linearGradient>
    <linearGradient id="pink" x1="0%" y1="0%" x2="100%" y2="0%">
      <stop offset="0%" style="stop-color:#ec4899"/>
      <stop offset="100%" style="stop-color:#db2777"/>
    </linearGradient>
  </defs>
  <rect width="800" height="600" fill="url(#bg)"/>
  <rect x="20" y="20" width="760" height="560" rx="12" fill="#111" stroke="#333" stroke-width="2"/>
  <rect x="20" y="20" width="760" height="40" rx="12" fill="#1a1a1a"/>
  <circle cx="45" cy="40" r="6" fill="#ef4444"/>
  <circle cx="65" cy="40" r="6" fill="#f59e0b"/>
  <circle cx="85" cy="40" r="6" fill="#10b981"/>
  <rect x="200" y="32" width="200" height="16" rx="4" fill="#333"/>
  <!-- Navigation -->
  <rect x="20" y="60" width="760" height="50" fill="#1a0018" stroke="rgba(236,72,153,0.2)" stroke-width="1"/>
  <text x="60" y="90" fill="#ec4899" font-family="Georgia" font-size="18" font-weight="bold">💅 Luxe Beauty</text>
  <text x="220" y="90" fill="#c9a0c9" font-family="Arial" font-size="11">Home</text>
  <text x="265" y="90" fill="#c9a0c9" font-family="Arial" font-size="11">Services</text>
  <text x="325" y="90" fill="#c9a0c9" font-family="Arial" font-size="11">Stylists</text>
  <text x="380" y="90" fill="#c9a0c9" font-family="Arial" font-size="11">Gallery</text>
  <text x="430" y="90" fill="#c9a0c9" font-family="Arial" font-size="11">Booking</text>
  <text x="485" y="90" fill="#c9a0c9" font-family="Arial" font-size="11">Contact</text>
  <rect x="650" y="75" width="110" height="28" rx="6" fill="url(#pink)"/>
  <text x="705" y="93" text-anchor="middle" fill="white" font-family="Arial" font-size="10" font-weight="bold">Book Now</text>
  <!-- Hero -->
  <rect x="220" y="130" width="350" height="16" rx="4" fill="rgba(236,72,153,0.2)"/>
  <text x="230" y="143" fill="#ec4899" font-family="Arial" font-size="10">✨ Premium Beauty Services</text>
  <rect x="220" y="155" width="420" height="40" rx="4" fill="#1a0018"/>
  <text x="230" y="182" fill="white" font-family="Georgia" font-size="28" font-weight="bold">Look <tspan fill="#ec4899">Beautiful</tspan></text>
  <text x="230" y="200" fill="white" font-family="Georgia" font-size="28" font-weight="bold">Feel Beautiful</text>
  <rect x="220" y="210" width="350" height="10" rx="3" fill="#2a0020"/>
  <rect x="220" y="228" width="280" height="10" rx="3" fill="#2a0020"/>
  <rect x="220" y="250" width="110" height="32" rx="6" fill="url(#pink)"/>
  <text x="275" y="270" text-anchor="middle" fill="white" font-family="Arial" font-size="11" font-weight="bold">Book Appointment</text>
  <rect x="345" y="250" width="110" height="32" rx="6" fill="transparent" stroke="#ec4899" stroke-width="2"/>
  <text x="400" y="270" text-anchor="middle" fill="#ec4899" font-family="Arial" font-size="11">Our Services</text>
  <!-- Salon Image -->
  <rect x="630" y="130" width="140" height="160" rx="16" fill="rgba(236,72,153,0.12)" stroke="rgba(236,72,153,0.3)" stroke-width="2" stroke-dasharray="8,4"/>
  <text x="700" y="215" text-anchor="middle" fill="rgba(236,72,153,0.5)" font-size="50">💅</text>
  <!-- Services -->
  <rect x="220" y="300" width="120" height="150" rx="12" fill="#1a0018" stroke="rgba(236,72,153,0.2)" stroke-width="1"/>
  <rect x="235" y="315" width="90" height="50" rx="8" fill="rgba(236,72,153,0.15)"/>
  <text x="280" y="348" text-anchor="middle" fill="rgba(236,72,153,0.4)" font-size="24">✂️</text>
  <rect x="235" y="375" width="70" height="8" rx="3" fill="#333"/>
  <text x="280" y="405" text-anchor="middle" fill="#ec4899" font-family="Arial" font-size="14" font-weight="bold">₹500</text>
  <text x="280" y="435" text-anchor="middle" fill="#c9a0c9" font-family="Arial" font-size="9">Haircut & Style</text>
  <rect x="360" y="300" width="120" height="150" rx="12" fill="#1a0018" stroke="rgba(236,72,153,0.2)" stroke-width="1"/>
  <rect x="375" y="315" width="90" height="50" rx="8" fill="rgba(236,72,153,0.15)"/>
  <text x="420" y="348" text-anchor="middle" fill="rgba(236,72,153,0.4)" font-size="24">💄</text>
  <rect x="375" y="375" width="70" height="8" rx="3" fill="#333"/>
  <text x="420" y="405" text-anchor="middle" fill="#ec4899" font-family="Arial" font-size="14" font-weight="bold">₹800</text>
  <text x="420" y="435" text-anchor="middle" fill="#c9a0c9" font-family="Arial" font-size="9">Full Makeup</text>
  <rect x="500" y="300" width="120" height="150" rx="12" fill="#1a0018" stroke="rgba(236,72,153,0.2)" stroke-width="1"/>
  <rect x="515" y="315" width="90" height="50" rx="8" fill="rgba(236,72,153,0.15)"/>
  <text x="560" y="348" text-anchor="middle" fill="rgba(236,72,153,0.4)" font-size="24">💅</text>
  <rect x="515" y="375" width="70" height="8" rx="3" fill="#333"/>
  <text x="560" y="405" text-anchor="middle" fill="#ec4899" font-family="Arial" font-size="14" font-weight="bold">₹350</text>
  <text x="560" y="435" text-anchor="middle" fill="#c9a0c9" font-family="Arial" font-size="9">Nail Art</text>
  <!-- Stylists -->
  <rect x="220" y="470" width="520" height="80" rx="8" fill="#1a0018" stroke="rgba(236,72,153,0.2)" stroke-width="1"/>
  <text x="480" y="495" text-anchor="middle" fill="#ec4899" font-family="Georgia" font-size="14" font-weight="bold">Meet Our Expert Stylists</text>
  <rect x="250" y="510" width="60" height="30" rx="15" fill="rgba(236,72,153,0.2)"/>
  <text x="280" y="530" text-anchor="middle" fill="#ec4899" font-size="16">👩</text>
  <rect x="330" y="510" width="60" height="30" rx="15" fill="rgba(236,72,153,0.2)"/>
  <text x="360" y="530" text-anchor="middle" fill="#ec4899" font-size="16">👩‍🦰</text>
  <rect x="410" y="510" width="60" height="30" rx="15" fill="rgba(236,72,153,0.2)"/>
  <text x="440" y="530" text-anchor="middle" fill="#ec4899" font-size="16">👩‍🦱</text>
  <!-- Footer -->
  <rect x="20" y="560" width="760" height="20" fill="#0d000a"/>
  <text x="400" y="574" text-anchor="middle" fill="#8b7355" font-family="Arial" font-size="9">© 2024 Luxe Beauty Salon. All Rights Reserved.</text>
</svg>
